<mxfile host="65bd71144e">
    <diagram name="Page-1" id="Xy2vjNSt9NBySG3_Ve8c">
        <mxGraphModel dx="624" dy="1516" grid="1" gridSize="10" guides="1" tooltips="1" connect="1" arrows="1" fold="1" page="1" pageScale="1" pageWidth="827" pageHeight="1169" math="0" shadow="0">
            <root>
                <mxCell id="0"/>
                <mxCell id="1" parent="0"/>
                <mxCell id="CxJxGAUQINoGkDOHnPr4-2" value="f1 add execute it&amp;nbsp;" style="rounded=1;whiteSpace=wrap;html=1;absoluteArcSize=1;arcSize=14;strokeWidth=2;" parent="1" vertex="1">
                    <mxGeometry x="170" y="-200" width="100" height="100" as="geometry"/>
                </mxCell>
                <mxCell id="CxJxGAUQINoGkDOHnPr4-4" value="" style="rounded=1;whiteSpace=wrap;html=1;absoluteArcSize=1;arcSize=14;strokeWidth=2;" parent="1" vertex="1">
                    <mxGeometry x="350" y="-200" width="100" height="100" as="geometry"/>
                </mxCell>
                <mxCell id="CxJxGAUQINoGkDOHnPr4-5" value="" style="rounded=0;whiteSpace=wrap;html=1;labelBackgroundColor=none;fontStyle=0" parent="1" vertex="1">
                    <mxGeometry x="240" y="-30" width="120" height="60" as="geometry"/>
                </mxCell>
                <mxCell id="CxJxGAUQINoGkDOHnPr4-6" value="Call Stack" style="text;html=1;align=center;verticalAlign=middle;whiteSpace=wrap;rounded=0;fontSize=14;fontFamily=Verdana;" parent="1" vertex="1">
                    <mxGeometry x="180" y="-230" width="80" height="30" as="geometry"/>
                </mxCell>
                <mxCell id="CxJxGAUQINoGkDOHnPr4-7" value="&lt;h4 style=&quot;margin-top: 0px;&quot;&gt;&lt;font style=&quot;font-size: 18px;&quot; face=&quot;Verdana&quot;&gt;Synchronous vs Asynchronous&lt;/font&gt;&lt;/h4&gt;&lt;div&gt;&lt;font style=&quot;font-size: 18px;&quot; face=&quot;Verdana&quot;&gt;Java Script Execute Engine Working&amp;nbsp;&lt;/font&gt;&lt;/div&gt;" style="text;html=1;whiteSpace=wrap;overflow=hidden;rounded=0;align=center;" parent="1" vertex="1">
                    <mxGeometry x="130" y="-380" width="410" height="100" as="geometry"/>
                </mxCell>
                <mxCell id="CxJxGAUQINoGkDOHnPr4-9" value="Browser" style="text;html=1;align=center;verticalAlign=middle;whiteSpace=wrap;rounded=0;fontSize=15;fontFamily=Verdana;" parent="1" vertex="1">
                    <mxGeometry x="360" y="-230" width="80" height="30" as="geometry"/>
                </mxCell>
                <mxCell id="CxJxGAUQINoGkDOHnPr4-11" value="CallbackQueue" style="text;html=1;align=center;verticalAlign=middle;whiteSpace=wrap;rounded=0;fontSize=14;fontFamily=Verdana;" parent="1" vertex="1">
                    <mxGeometry x="250" y="40" width="100" height="30" as="geometry"/>
                </mxCell>
                <mxCell id="CxJxGAUQINoGkDOHnPr4-12" value="&lt;span style=&quot;background-color: light-dark(#ffffff, var(--ge-dark-color, #121212));&quot;&gt;console.log(&#39;Hello..&#39;)//f1 // Global Scope&lt;br&gt;function sync(){&amp;nbsp;&lt;/span&gt;&lt;span style=&quot;background-color: rgb(255, 255, 255);&quot;&gt;&amp;nbsp;&lt;/span&gt;&lt;div&gt;&lt;span style=&quot;background-color: light-dark(#ffffff, var(--ge-dark-color, #121212));&quot;&gt;console.log(&#39;step 1&#39;)//f3&lt;br&gt;    console.log(&#39;step 2&#39;)//f4&lt;br&gt;    console.log(&#39;step 3&#39;)//f5&lt;br&gt;}&lt;br&gt;sync()//f2&amp;nbsp;&lt;/span&gt;&lt;span style=&quot;background-color: rgb(255, 255, 255);&quot;&gt;&amp;nbsp;Global Scope&lt;/span&gt;&lt;span style=&quot;background-color: light-dark(#ffffff, var(--ge-dark-color, #121212));&quot;&gt;&lt;br&gt;let a = 100&amp;nbsp;&lt;/span&gt;&lt;span style=&quot;background-color: rgb(255, 255, 255);&quot;&gt;&amp;nbsp;Global Scope&lt;/span&gt;&lt;span style=&quot;background-color: light-dark(#ffffff, var(--ge-dark-color, #121212));&quot;&gt;&lt;br&gt;let b=20&amp;nbsp;&lt;/span&gt;&lt;span style=&quot;background-color: rgb(255, 255, 255);&quot;&gt;&amp;nbsp;Global Scope&lt;/span&gt;&lt;span style=&quot;background-color: light-dark(#ffffff, var(--ge-dark-color, #121212));&quot;&gt;&lt;br&gt;let c=a+b&lt;/span&gt;&lt;span style=&quot;background-color: rgb(255, 255, 255);&quot;&gt;&amp;nbsp;Global Scope&lt;/span&gt;&lt;span style=&quot;background-color: light-dark(#ffffff, var(--ge-dark-color, #121212));&quot;&gt;&lt;br&gt;&lt;br&gt;setTimeout(()=&amp;gt;console.log(&#39;step1&#39;),0000)//f6&lt;br&gt;setTimeout(()=&amp;gt;console.log(&#39;step2&#39;),2000)//f7&lt;br&gt;setTimeout(()=&amp;gt;console.log(&#39;step3&#39;),1000)//f8&lt;br&gt;&lt;br&gt;console.log(&#39;bye&#39;)//f9&lt;/span&gt;&lt;div&gt;&lt;span style=&quot;background-color: light-dark(#ffffff, var(--ge-dark-color, #121212));&quot;&gt;&lt;br&gt;&lt;/span&gt;&lt;/div&gt;&lt;div&gt;&lt;span style=&quot;background-color: light-dark(#ffffff, var(--ge-dark-color, #121212));&quot;&gt;&lt;br&gt;&lt;/span&gt;&lt;/div&gt;&lt;/div&gt;" style="text;html=1;align=left;verticalAlign=top;whiteSpace=wrap;rounded=0;" parent="1" vertex="1">
                    <mxGeometry x="160" y="130" width="490" height="240" as="geometry"/>
                </mxCell>
                <mxCell id="CxJxGAUQINoGkDOHnPr4-13" value="Call Stack is DSA&lt;br&gt;Last In First Out Called stack" style="text;html=1;align=center;verticalAlign=middle;whiteSpace=wrap;rounded=0;" parent="1" vertex="1">
                    <mxGeometry x="40" y="-220" width="80" height="90" as="geometry"/>
                </mxCell>
                <mxCell id="CxJxGAUQINoGkDOHnPr4-14" value="&lt;h1 style=&quot;margin-top: 0px;&quot;&gt;OutSide function are called global scope,&amp;nbsp; will execute first&lt;/h1&gt;" style="text;html=1;whiteSpace=wrap;overflow=hidden;rounded=0;" parent="1" vertex="1">
                    <mxGeometry x="500" y="120" width="310" height="180" as="geometry"/>
                </mxCell>
            </root>
        </mxGraphModel>
    </diagram>
</mxfile>